# xmcd
#
# Track frame offsets:
#	150
#	21025
#	43940
#	65310
#	83944
#	107225
#	125984
#	148381
#	170798
#	192867
#
# Disc length: 2848 seconds
#
# Revision: 0
# Processed by: cddbd v1.5.2PL0 Copyright (c) Steve Scherf et al.
# Submitted via: EZCDAudioConverter 1.0.8.1
#
DISCID=9a0b1e0a
DTITLE=Various Artist - 絲綢之路巡禮名曲集 (華星40經典金唱片)
DYEAR=2014
DGENRE=香港流行歌曲
TTITLE0=羅文 - 同途萬里人
TTITLE1=喜多郎 - 絲綢之路
TTITLE2=喜多郎 - 萬里長城往西行 (西へ向かって)
TTITLE3=喜多郎 - 長城最西端之嘉峪關 (防人の館)
TTITLE4=喜多郎 - 敦煌月牙泉 (ファンタジ ー敦煌)
TTITLE5=喜多郎 - 莫高窟四十五窟 (菩薩)
TTITLE6=喜多郎 - 黑水城 (幻の黒水城)
TTITLE7=喜多郎 - 天山北麓 (緑の草原)
TTITLE8=喜多郎 - 回族人民 (ウイグルの民)
TTITLE9=喜多郎 - 同途萬里人(Instrument)
EXTD=
EXTT0=
EXTT1=
EXTT2=
EXTT3=
EXTT4=
EXTT5=
EXTT6=
EXTT7=
EXTT8=
EXTT9=
PLAYORDER=
